Coordinates
version=1
nRows=34
nColumns=38
inDegrees=no

Units are S.I. units (second, meters, Newtons, ...)
If the header above contains a line with 'inDegrees', this indicates whether rotational values are in degrees (yes) or radians (no).

endheader
time	pelvis_tilt	pelvis_list	pelvis_rotation	pelvis_tx	pelvis_ty	pelvis_tz	hip_flexion_r	hip_adduction_r	hip_rotation_r	knee_angle_r	ankle_angle_r	subtalar_angle_r	mtp_angle_r	hip_flexion_l	hip_adduction_l	hip_rotation_l	knee_angle_l	ankle_angle_l	subtalar_angle_l	mtp_angle_l	lumbar_extension	lumbar_bending	lumbar_rotation	arm_flex_r	arm_add_r	arm_rot_r	elbow_flex_r	pro_sup_r	wrist_flex_r	wrist_dev_r	arm_flex_l	arm_add_l	arm_rot_l	elbow_flex_l	pro_sup_l	wrist_flex_l	wrist_dev_l
1.67	0.687884	1.49277	-2.29544	0.96125	-0.13	0.903936	-0.331549	-0.0620092	-0.227676	0.301611	0.329998	0	0	0.370649	-0.0134478	-0.276077	0.231136	0.118976	0	0	-0.180288	-0.0911702	-0.0551397	-0.23522	-0.207512	-0.0274349	0.816349	0.454646	0	0	-0.215151	-0.29281	0.260181	0.616658	1.43046	0	0
1.68	0.726563	1.48888	-2.33718	0.962895	-0.142838	0.903187	-0.327803	-0.0761734	-0.23006	0.33966	0.325169	0	0	0.369107	-0.00890529	-0.282268	0.247422	0.0895958	0	0	-0.176886	-0.0992582	-0.0514608	-0.23768	-0.205577	-0.0298432	0.810034	0.455402	0	0	-0.216782	-0.293178	0.252212	0.617129	1.42991	0	0
1.69	0.766038	1.48501	-2.3775	0.964817	-0.155763	0.902723	-0.32083	-0.0909904	-0.233959	0.382795	0.314996	0	0	0.369042	-0.00539459	-0.291187	0.270057	0.0694817	0	0	-0.173166	-0.107236	-0.0502221	-0.239326	-0.203278	-0.0319985	0.802125	0.456367	0	0	-0.218763	-0.293578	0.242971	0.618126	1.42888	0	0
1.7	0.799754	1.48181	-2.41085	0.966813	-0.168678	0.902486	-0.309693	-0.105691	-0.237424	0.432042	0.298378	0	0	0.374816	-0.0059565	-0.305292	0.309313	0.0679203	0	0	-0.169061	-0.114437	-0.0497727	-0.240497	-0.200878	-0.033518	0.79302	0.458345	0	0	-0.220745	-0.294289	0.233271	0.620129	1.42622	0	0
1.71	0.814264	1.47698	-2.42395	0.968886	-0.181613	0.902848	-0.298167	-0.12058	-0.23829	0.484813	0.27287	0	0	0.378356	-0.00622792	-0.313413	0.350941	0.0734694	0	0	-0.167489	-0.121683	-0.0500476	-0.241406	-0.198615	-0.0334294	0.783929	0.459146	0	0	-0.221911	-0.296463	0.228063	0.62324	1.41961	0	0
1.72	0.828774	1.47096	-2.43514	0.971143	-0.194552	0.90372	-0.283618	-0.136786	-0.239421	0.542539	0.237143	0	0	0.379029	-0.0034299	-0.314937	0.388528	0.0809194	0	0	-0.167016	-0.1298	-0.0527515	-0.241284	-0.195916	-0.0318347	0.773199	0.458444	0	0	-0.223273	-0.299097	0.222303	0.627219	1.41058	0	0
1.73	0.85496	1.46446	-2.4553	0.973711	-0.207402	0.904903	-0.263899	-0.154509	-0.240677	0.605387	0.190296	0	0	0.376375	0.00389912	-0.312019	0.417082	0.0883099	0	0	-0.16618	-0.138826	-0.0581621	-0.241023	-0.192367	-0.0306369	0.761636	0.457857	0	0	-0.224222	-0.302905	0.218992	0.631947	1.3993	0	0
1.74	0.895261	1.45839	-2.48789	0.976517	-0.220021	0.906126	-0.238163	-0.173358	-0.240254	0.671868	0.131812	0	0	0.371336	0.0145908	-0.307597	0.435895	0.0940958	0	0	-0.163963	-0.148147	-0.0646589	-0.241748	-0.18902	-0.0287919	0.751447	0.45679	0	0	-0.224299	-0.308179	0.219199	0.638171	1.38808	0	0
1.75	0.949215	1.45453	-2.53182	0.979528	-0.23251	0.907109	-0.206866	-0.191224	-0.238868	0.739071	0.0616859	0	0	0.365962	0.0268827	-0.301363	0.446352	0.0976754	0	0	-0.158674	-0.156158	-0.0727124	-0.24363	-0.186737	-0.0237215	0.74191	0.455073	0	0	-0.224562	-0.31468	0.221772	0.646541	1.37473	0	0
1.76	1.00378	1.45165	-2.5762	0.982625	-0.244925	0.907955	-0.173199	-0.207766	-0.234183	0.804786	-0.0106855	0	0	0.358002	0.0399393	-0.295256	0.449279	0.101101	0	0	-0.152148	-0.162719	-0.0807227	-0.246606	-0.185554	-0.0172783	0.734316	0.453661	0	0	-0.224921	-0.321068	0.223361	0.656151	1.36579	0	0
1.77	1.05707	1.44942	-2.6199	0.985728	-0.257205	0.908722	-0.137513	-0.222597	-0.225882	0.868619	-0.0830815	0	0	0.347884	0.0531636	-0.289478	0.447209	0.106241	0	0	-0.144973	-0.167986	-0.0879199	-0.250292	-0.185183	-0.0104165	0.728966	0.450831	0	0	-0.224876	-0.327609	0.225919	0.66682	1.35636	0	0
1.78	1.10247	1.44719	-2.65638	0.988738	-0.269231	0.909537	-0.100505	-0.236048	-0.215384	0.930779	-0.152355	0	0	0.33596	0.0661295	-0.282709	0.442823	0.112535	0	0	-0.138729	-0.172271	-0.0942971	-0.254479	-0.185006	-0.00498262	0.726405	0.446558	0	0	-0.223918	-0.334675	0.229849	0.6785	1.3458	0	0
1.79	1.12913	1.44432	-2.67476	0.991568	-0.280918	0.910592	-0.0650942	-0.247866	-0.204769	0.989066	-0.215923	0	0	0.321643	0.0782537	-0.274068	0.438009	0.119003	0	0	-0.135458	-0.175721	-0.100237	-0.258168	-0.184757	-0.00120481	0.725659	0.442154	0	0	-0.221587	-0.342307	0.234539	0.691063	1.33469	0	0
1.8	1.12836	1.44066	-2.66701	0.994116	-0.292257	0.912065	-0.0335468	-0.257582	-0.193984	1.04133	-0.272286	0	0	0.303717	0.0886395	-0.26432	0.433108	0.125747	0	0	-0.136614	-0.178111	-0.10532	-0.260629	-0.184602	0.00137938	0.725908	0.43872	0	0	-0.21729	-0.35016	0.239576	0.703602	1.32326	0	0
1.81	1.09967	1.43665	-2.63283	0.996344	-0.303362	0.913996	-0.00792675	-0.263986	-0.183065	1.08524	-0.308237	0	0	0.282456	0.0959179	-0.255346	0.42913	0.133279	0	0	-0.142307	-0.178831	-0.110128	-0.261157	-0.184863	0.00404319	0.725938	0.435676	0	0	-0.211913	-0.357733	0.244283	0.715412	1.31091	0	0
1.82	1.04962	1.43222	-2.57855	0.99828	-0.314182	0.916333	0.0135587	-0.267625	-0.17155	1.12475	-0.310495	0	0	0.2575	0.100513	-0.247732	0.423494	0.140112	0	0	-0.151837	-0.178046	-0.114195	-0.260302	-0.185321	0.00671801	0.725645	0.431358	0	0	-0.205118	-0.366108	0.252154	0.727416	1.29027	0	0
1.83	0.997759	1.42921	-2.52279	1.00004	-0.324705	0.918713	0.0363144	-0.268552	-0.160347	1.16468	-0.277489	0	0	0.233319	0.101895	-0.241832	0.418211	0.146172	0	0	-0.161171	-0.175166	-0.11825	-0.258462	-0.185517	0.00746466	0.724216	0.432339	0	0	-0.196929	-0.372664	0.25562	0.735573	1.28216	0	0
1.84	0.945558	1.42727	-2.46651	1.00176	-0.335044	0.921148	0.0596167	-0.267331	-0.15032	1.201	-0.227862	0	0	0.208775	0.101418	-0.237242	0.410734	0.151365	0	0	-0.170099	-0.170604	-0.123527	-0.255538	-0.185898	0.00814317	0.721694	0.435697	0	0	-0.188998	-0.377474	0.253952	0.741904	1.28268	0	0
1.85	0.897384	1.42623	-2.41335	1.00356	-0.345291	0.923573	0.0826263	-0.26455	-0.141976	1.23007	-0.177292	0	0	0.184034	0.100281	-0.232992	0.400237	0.15559	0	0	-0.177883	-0.164919	-0.130296	-0.252502	-0.186153	0.00802717	0.718435	0.439589	0	0	-0.181384	-0.380812	0.248601	0.7465	1.2892	0	0
1.86	0.851828	1.42582	-2.3626	1.00536	-0.355332	0.925962	0.105466	-0.260361	-0.134245	1.25158	-0.135235	0	0	0.159722	0.098586	-0.22934	0.388186	0.159461	0	0	-0.184726	-0.158438	-0.137181	-0.24982	-0.18671	0.00841713	0.715074	0.442512	0	0	-0.172961	-0.383523	0.243388	0.749344	1.29663	0	0
1.87	0.807114	1.42574	-2.31245	1.00716	-0.365216	0.928332	0.127685	-0.255355	-0.127521	1.26591	-0.103596	0	0	0.1352	0.0965535	-0.225608	0.374224	0.162897	0	0	-0.190825	-0.151344	-0.144114	-0.247893	-0.187562	0.00958202	0.711953	0.44446	0	0	-0.163884	-0.385962	0.23868	0.750881	1.30468	0	0
1.88	0.763925	1.42612	-2.26321	1.00898	-0.375086	0.930636	0.148603	-0.24955	-0.122503	1.27336	-0.0773556	0	0	0.110541	0.0943362	-0.220755	0.358394	0.165538	0	0	-0.195873	-0.143746	-0.151786	-0.246696	-0.188288	0.0109234	0.708875	0.445845	0	0	-0.155305	-0.388172	0.23327	0.752007	1.31378	0	0
1.89	0.719859	1.42684	-2.21328	1.01069	-0.384867	0.932825	0.168757	-0.242832	-0.118491	1.27529	-0.0533027	0	0	0.0861661	0.0915062	-0.21491	0.341722	0.16771	0	0	-0.20039	-0.135657	-0.158929	-0.246483	-0.188627	0.011376	0.706746	0.447096	0	0	-0.146552	-0.390441	0.228328	0.753228	1.32074	0	0
1.9	0.674945	1.42801	-2.16331	1.01224	-0.394518	0.934877	0.18888	-0.235453	-0.115205	1.27235	-0.0311235	0	0	0.0628006	0.0878069	-0.208949	0.325065	0.169598	0	0	-0.204228	-0.127096	-0.165018	-0.246951	-0.188716	0.010989	0.705479	0.448512	0	0	-0.137339	-0.392654	0.224074	0.75408	1.32579	0	0
1.91	0.631454	1.42981	-2.11459	1.01373	-0.404033	0.936765	0.208808	-0.228154	-0.113676	1.26431	-0.0115788	0	0	0.041067	0.083467	-0.202644	0.308837	0.17106	0	0	-0.207182	-0.118195	-0.17147	-0.247633	-0.189357	0.0132689	0.704858	0.448886	0	0	-0.128183	-0.39488	0.219699	0.754794	1.32937	0	0
1.92	0.590287	1.4322	-2.06694	1.01526	-0.413426	0.938447	0.227941	-0.221614	-0.115261	1.25142	0.00674685	0	0	0.0212964	0.0787551	-0.19564	0.293618	0.172351	0	0	-0.209136	-0.109112	-0.178753	-0.24883	-0.19001	0.0168013	0.704666	0.448014	0	0	-0.118825	-0.397421	0.21635	0.755366	1.33122	0	0
1.93	0.54505	1.43409	-2.01533	1.01669	-0.422717	0.940057	0.245188	-0.214907	-0.1182	1.23373	0.0250684	0	0	0.001128	0.0736495	-0.187465	0.277982	0.173396	0	0	-0.211645	-0.0997382	-0.185804	-0.250046	-0.190076	0.0190682	0.704805	0.447684	0	0	-0.109347	-0.400022	0.213212	0.756315	1.33091	0	0
1.94	0.498192	1.43551	-1.96188	1.01807	-0.431969	0.941572	0.260616	-0.208508	-0.122538	1.21141	0.0432112	0	0	-0.0194981	0.0683756	-0.1785	0.26163	0.173837	0	0	-0.214374	-0.0902695	-0.193215	-0.2509	-0.189442	0.018907	0.704996	0.45058	0	0	-0.100284	-0.402524	0.209335	0.757616	1.33046	0	0
1.95	0.451868	1.43657	-1.90894	1.01936	-0.441149	0.942924	0.274386	-0.202534	-0.127885	1.18467	0.0606463	0	0	-0.0398116	0.0630569	-0.169302	0.245382	0.173746	0	0	-0.217219	-0.0809338	-0.20106	-0.251364	-0.188549	0.0181821	0.705874	0.455367	0	0	-0.0918242	-0.404966	0.204331	0.759258	1.33121	0	0
1.96	0.408371	1.43698	-1.85902	1.02056	-0.450337	0.944096	0.286117	-0.197625	-0.13454	1.15393	0.0764972	0	0	-0.0602465	0.0580786	-0.15973	0.229139	0.173066	0	0	-0.220082	-0.0722069	-0.208399	-0.252069	-0.187434	0.0166124	0.707601	0.46151	0	0	-0.083372	-0.407679	0.200556	0.761163	1.33045	0	0
1.97	0.369062	1.43708	-1.81376	1.0217	-0.45951	0.945066	0.296451	-0.193706	-0.142089	1.11946	0.088558	0	0	-0.0804247	0.0534873	-0.149322	0.213148	0.171756	0	0	-0.222782	-0.0640495	-0.215619	-0.252372	-0.186012	0.0138294	0.709416	0.469444	0	0	-0.0753892	-0.41035	0.196504	0.763211	1.32883	0	0
1.98	0.333688	1.43686	-1.77318	1.02276	-0.468698	0.945796	0.305372	-0.190596	-0.150397	1.08146	0.0957654	0	0	-0.100016	0.0492307	-0.139936	0.198121	0.171236	0	0	-0.225353	-0.0564707	-0.222179	-0.252456	-0.184285	0.00900395	0.712126	0.478335	0	0	-0.0675801	-0.412976	0.192653	0.765131	1.32843	0	0
1.99	0.303981	1.43627	-1.73926	1.02367	-0.477884	0.946301	0.312841	-0.18841	-0.159157	1.04009	0.0983143	0	0	-0.119707	0.0455612	-0.131411	0.182986	0.170666	0	0	-0.227978	-0.0498981	-0.227867	-0.251919	-0.182029	0.00220495	0.715169	0.488578	0	0	-0.0597566	-0.416048	0.190313	0.767075	1.3276	0	0
2	0.280672	1.43552	-1.71263	1.02446	-0.487128	0.946553	0.318997	-0.187419	-0.169364	0.995929	0.0990496	0	0	-0.139376	0.0426193	-0.12321	0.168	0.170305	0	0	-0.230378	-0.0444431	-0.232799	-0.250952	-0.180089	-0.00383956	0.71878	0.496671	0	0	-0.0522078	-0.419573	0.189667	0.769416	1.32309	0	0
